<?xml version="1.0" standalone="no"?>
<!DOCTYPE svg PUBLIC "-//W3C//DTD SVG 20010904//EN"
 "http://www.w3.org/TR/2001/REC-SVG-20010904/DTD/svg10.dtd">
<svg version="1.0" xmlns="http://www.w3.org/2000/svg"
 width="16.000000pt" height="16.000000pt" viewBox="0 0 16.000000 16.000000"
 preserveAspectRatio="xMidYMid meet">
<metadata>
Created by potrace 1.11, written by Peter Selinger 2001-2013
</metadata>
<g transform="translate(0.000000,16.000000) scale(0.001329,-0.001329)"
fill="#000000" stroke="none">
<path d="M27 10228 c16 -24 32 -48 38 -54 5 -6 19 -27 30 -47 11 -20 23 -37
27 -37 5 0 8 -6 8 -14 0 -8 3 -16 8 -18 4 -1 23 -28 42 -58 19 -30 37 -57 40
-60 6 -6 63 -90 70 -105 13 -26 166 -250 173 -253 4 -2 7 -10 7 -17 0 -7 3
-15 8 -17 6 -3 119 -168 132 -193 3 -5 64 -97 135 -203 72 -106 135 -201 140
-210 17 -27 230 -347 235 -352 3 -3 48 -70 100 -150 52 -80 98 -146 103 -148
4 -2 7 -7 7 -11 0 -7 142 -224 167 -256 12 -15 67 -99 73 -110 13 -26 166
-250 173 -253 4 -2 7 -10 7 -18 0 -8 5 -14 10 -14 6 0 10 -4 10 -10 0 -5 27
-48 60 -95 33 -47 60 -89 60 -94 0 -4 9 -16 20 -26 11 -10 20 -22 20 -27 0
-11 42 -72 53 -76 4 -2 7 -7 7 -12 0 -6 122 -192 147 -225 16 -20 67 -100 67
-105 0 -3 8 -14 19 -25 10 -11 30 -41 44 -67 15 -27 29 -48 32 -48 4 0 17 -20
31 -45 14 -25 28 -45 32 -45 5 0 8 -4 8 -10 0 -11 62 -103 73 -108 4 -2 7 -10
7 -17 0 -7 3 -15 8 -17 8 -3 62 -84 62 -93 0 -3 11 -18 25 -33 14 -15 25 -30
25 -34 0 -10 103 -162 113 -166 4 -2 7 -10 7 -18 0 -8 5 -14 10 -14 6 0 10 -4
10 -10 0 -8 57 -98 71 -110 3 -3 16 -22 28 -43 l24 -39 -22 -28 c-11 -16 -21
-33 -21 -39 0 -5 -3 -11 -8 -13 -4 -1 -40 -52 -79 -113 -40 -60 -76 -114 -80
-120 -5 -5 -24 -35 -43 -65 -19 -30 -37 -57 -41 -60 -3 -3 -21 -30 -40 -60
-18 -30 -36 -57 -39 -60 -3 -3 -39 -57 -80 -120 -41 -63 -77 -117 -80 -120 -3
-3 -21 -30 -40 -60 -19 -30 -37 -57 -41 -60 -3 -3 -21 -30 -40 -60 -18 -30
-37 -59 -42 -65 -5 -5 -40 -57 -78 -115 -38 -58 -73 -112 -79 -120 -102 -150
-190 -282 -190 -285 0 -2 -36 -56 -80 -120 -44 -64 -80 -118 -80 -120 0 -2
-36 -56 -80 -120 -44 -64 -80 -118 -80 -119 0 -4 -198 -299 -209 -313 -6 -6
-25 -35 -43 -65 -17 -29 -35 -55 -38 -58 -3 -3 -39 -57 -80 -120 -41 -63 -77
-117 -80 -120 -3 -3 -21 -30 -40 -60 -19 -30 -37 -57 -41 -60 -3 -3 -21 -30
-40 -60 -18 -30 -37 -59 -42 -65 -5 -5 -40 -57 -77 -115 -38 -58 -73 -109 -77
-115 -5 -5 -24 -35 -43 -65 -19 -30 -37 -57 -41 -60 -3 -3 -21 -30 -40 -60
-18 -30 -35 -57 -38 -60 -4 -3 -58 -84 -121 -180 -63 -96 -118 -177 -121 -180
-4 -3 -21 -30 -40 -60 -18 -30 -37 -59 -42 -65 -5 -5 -40 -57 -77 -115 -38
-58 -73 -109 -77 -115 -4 -5 -20 -29 -36 -52 l-27 -43 1062 0 1063 0 165 247
c91 136 167 251 169 257 2 6 7 13 10 16 12 9 111 162 111 170 0 5 3 10 8 12
10 5 52 66 52 77 0 5 3 11 8 13 4 2 25 30 47 63 21 33 42 62 47 63 4 2 8 8 8
12 0 5 70 113 155 241 85 127 155 235 155 239 0 5 3 10 8 12 4 1 44 59 89 128
46 69 86 130 91 135 4 6 40 60 80 120 39 61 75 115 80 120 4 6 40 60 80 120
39 61 75 115 79 120 5 6 41 60 81 120 39 61 75 115 79 120 32 41 133 198 133
205 0 4 3 10 8 12 7 3 223 323 231 343 2 5 7 12 10 15 3 3 25 34 49 70 51 78
47 73 122 183 33 49 60 92 60 97 0 5 3 10 8 12 4 2 49 66 99 143 51 77 96 145
101 150 15 19 187 280 191 289 2 6 8 15 13 21 5 5 53 76 107 157 71 105 96
149 88 157 -6 6 -7 11 -1 11 5 0 4 4 -2 8 -15 10 -94 129 -94 141 0 6 -4 11
-8 11 -4 0 -25 29 -47 65 -22 36 -43 65 -47 65 -5 0 -8 4 -8 9 0 5 -47 79
-105 165 -58 85 -105 160 -105 165 0 5 -4 11 -8 13 -11 4 -152 215 -152 227 0
5 -4 11 -8 13 -11 4 -152 215 -152 228 0 5 -4 10 -8 10 -4 0 -25 29 -47 65
-22 36 -43 65 -47 65 -5 0 -8 4 -8 9 0 5 -47 79 -105 165 -58 85 -105 160
-105 165 0 5 -4 11 -8 13 -11 4 -152 215 -152 227 0 5 -4 11 -8 13 -11 4 -152
215 -152 227 0 5 -4 11 -8 13 -5 2 -68 93 -140 203 -72 110 -135 205 -140 210
-28 35 -192 287 -192 295 0 6 -4 10 -8 10 -5 0 -15 12 -23 28 -8 15 -22 36
-31 46 -10 11 -18 25 -18 32 0 7 -4 14 -8 16 -11 4 -72 94 -72 106 0 6 -7 13
-16 16 -8 3 -13 10 -10 15 3 5 -1 15 -10 22 -8 7 -22 26 -31 42 -8 17 -24 39
-34 50 -10 12 -19 26 -19 33 0 7 -3 14 -8 16 -11 4 -112 155 -112 167 0 5 -4
11 -8 13 -5 2 -40 50 -77 108 -38 58 -78 115 -89 128 -11 12 -16 22 -11 22 4
0 1 8 -8 18 -9 10 -50 70 -92 133 -41 63 -78 119 -82 124 -5 6 -51 74 -103
152 l-95 143 -1063 0 -1062 0 27 -42z"/>
<path d="M2840 10261 c0 -4 16 -29 35 -54 19 -25 35 -49 35 -53 0 -4 17 -30
38 -58 21 -28 41 -55 43 -61 8 -19 84 -130 92 -133 4 -2 7 -9 7 -16 0 -7 9
-21 20 -31 11 -10 20 -24 20 -32 0 -7 5 -13 10 -13 6 0 10 -7 10 -15 0 -8 5
-15 10 -15 6 0 10 -5 10 -10 0 -10 37 -67 51 -80 3 -3 16 -23 29 -45 13 -22
28 -44 32 -50 27 -34 100 -145 114 -172 9 -18 20 -33 25 -33 5 0 9 -5 9 -10 0
-6 5 -16 10 -23 6 -7 48 -68 93 -137 45 -69 87 -131 94 -138 6 -6 15 -21 18
-32 3 -11 11 -20 16 -20 5 0 9 -6 9 -13 0 -7 8 -22 18 -33 20 -24 82 -113 82
-119 0 -3 23 -36 50 -75 28 -39 50 -72 50 -75 0 -9 44 -70 53 -73 4 -2 7 -10
7 -18 0 -8 5 -14 10 -14 6 0 10 -7 10 -15 0 -8 4 -15 9 -15 5 0 11 -6 13 -12
4 -17 141 -222 150 -226 5 -2 8 -9 8 -15 0 -7 11 -24 25 -39 14 -15 25 -31 25
-36 0 -4 20 -36 45 -70 25 -34 45 -64 45 -66 0 -6 61 -98 70 -106 6 -6 62 -90
70 -105 12 -24 86 -130 93 -133 4 -2 7 -8 7 -13 0 -11 42 -72 53 -77 4 -2 7
-10 7 -18 0 -8 5 -14 10 -14 6 0 10 -7 10 -15 0 -8 5 -15 10 -15 6 0 10 -4 10
-9 0 -6 25 -45 55 -88 30 -43 62 -93 71 -110 9 -18 20 -33 25 -33 5 0 9 -5 9
-10 0 -12 41 -73 53 -78 4 -2 7 -9 7 -14 0 -6 17 -34 38 -62 21 -28 41 -55 43
-61 8 -20 164 -250 171 -253 5 -2 8 -8 8 -13 0 -9 37 -67 51 -79 3 -3 16 -23
29 -45 13 -22 28 -44 32 -50 5 -5 27 -39 51 -75 23 -36 44 -67 47 -70 3 -3 11
-17 19 -32 8 -16 18 -28 23 -28 4 0 8 -5 8 -10 0 -6 5 -16 10 -23 6 -7 29 -41
53 -77 23 -36 44 -67 47 -70 4 -3 17 -23 30 -45 13 -22 28 -44 32 -50 5 -5 30
-44 58 -85 27 -41 53 -80 58 -86 26 -30 18 -81 -18 -114 -5 -5 -72 -104 -95
-141 -32 -52 -112 -173 -120 -183 -6 -6 -29 -40 -52 -76 -24 -36 -47 -70 -53
-77 -5 -7 -15 -24 -22 -38 -6 -14 -14 -25 -18 -25 -4 0 -13 -13 -20 -30 -7
-16 -16 -30 -21 -30 -4 0 -11 -9 -14 -20 -3 -11 -12 -26 -19 -32 -13 -14 -128
-186 -135 -203 -2 -5 -9 -15 -15 -22 -23 -25 -32 -38 -32 -43 -1 -7 -136 -212
-150 -226 -5 -6 -25 -37 -44 -68 -19 -31 -38 -56 -42 -56 -4 0 -8 -6 -8 -13 0
-7 -11 -29 -25 -48 -14 -19 -31 -43 -39 -54 -29 -42 -321 -480 -326 -490 -9
-18 -65 -100 -77 -113 -6 -6 -15 -21 -18 -32 -3 -11 -10 -20 -15 -20 -5 0 -12
-9 -15 -20 -3 -11 -12 -26 -20 -33 -7 -8 -28 -38 -46 -68 -18 -30 -39 -58 -46
-62 -7 -4 -13 -13 -13 -19 0 -11 -46 -84 -60 -98 -3 -3 -37 -52 -74 -110 -38
-58 -74 -108 -80 -112 -6 -4 -7 -8 -2 -8 5 0 2 -8 -6 -17 -25 -28 -128 -185
-128 -195 0 -4 -3 -8 -8 -8 -4 0 -16 -17 -27 -37 -11 -20 -24 -41 -30 -47 -12
-14 -95 -135 -95 -140 0 -3 -42 -67 -130 -196 -6 -8 -28 -42 -50 -75 -22 -33
-44 -65 -50 -72 -6 -7 -15 -24 -22 -38 -6 -14 -14 -25 -18 -25 -4 0 -13 -14
-20 -30 -7 -17 -16 -30 -20 -30 -4 0 -13 -14 -20 -30 -7 -17 -16 -30 -21 -30
-4 0 -11 -9 -14 -20 -3 -11 -12 -26 -18 -32 -7 -7 -68 -98 -137 -202 -69 -104
-131 -195 -138 -203 -7 -7 -10 -13 -6 -13 4 0 -2 -10 -13 -22 -11 -13 -30 -41
-44 -63 -13 -22 -29 -46 -36 -53 -7 -7 -13 -18 -13 -23 0 -5 414 -9 1059 -9
l1058 0 88 132 c49 73 92 134 97 136 4 2 8 9 8 16 0 7 11 26 25 42 14 16 25
35 25 42 0 6 4 12 9 12 5 0 13 9 16 20 3 11 12 26 18 33 21 22 97 138 97 148
0 5 5 9 10 9 6 0 10 6 10 14 0 8 4 16 8 18 11 4 72 97 72 109 0 5 4 9 8 9 5 0
15 12 23 28 8 15 22 36 32 46 9 11 17 26 17 33 0 7 4 13 9 13 5 0 13 9 16 20
3 11 12 26 18 33 21 22 97 138 97 148 0 5 5 9 10 9 6 0 10 6 10 14 0 8 4 16 8
18 5 1 27 32 50 68 23 36 45 70 49 75 9 11 42 60 58 86 39 64 234 355 252 377
13 15 23 31 23 35 0 4 9 17 20 29 11 12 20 28 20 35 0 7 4 13 9 13 5 0 13 9
16 20 3 11 12 26 18 33 21 22 97 138 97 148 0 5 5 9 10 9 6 0 10 6 10 14 0 8
4 16 8 18 11 4 72 97 72 109 0 5 4 9 8 9 5 0 15 12 23 28 8 15 22 36 32 46 9
11 17 26 17 33 0 7 4 13 9 13 5 0 13 9 16 20 3 11 12 26 18 33 17 18 77 106
77 113 0 3 6 12 13 19 30 34 37 45 31 45 -4 0 2 10 13 23 11 12 30 39 42 59
21 35 51 43 51 14 0 -7 9 -22 20 -34 12 -12 18 -22 15 -22 -4 0 0 -7 7 -15 26
-29 38 -44 38 -49 0 -5 60 -96 70 -106 3 -3 11 -17 19 -32 8 -16 18 -28 23
-28 4 0 8 -5 8 -10 0 -12 41 -73 53 -78 4 -2 7 -10 7 -18 0 -8 5 -14 11 -14 5
0 8 -4 5 -9 -4 -5 -2 -11 2 -13 5 -1 30 -37 57 -78 27 -41 51 -77 55 -80 4 -3
9 -9 11 -15 8 -20 123 -190 131 -193 4 -2 8 -8 8 -13 0 -11 42 -72 53 -77 4
-2 7 -7 7 -12 0 -8 176 -276 190 -290 7 -7 29 -42 37 -60 4 -8 12 -20 17 -27
24 -27 33 -39 37 -48 2 -6 36 -57 74 -114 39 -57 75 -111 80 -120 29 -46 130
-197 135 -201 3 -3 11 -17 19 -32 8 -15 21 -36 30 -45 9 -10 22 -30 30 -45 8
-16 18 -28 23 -28 4 0 8 -6 8 -13 0 -7 9 -23 20 -35 11 -12 20 -25 20 -30 0
-4 8 -17 18 -28 20 -23 39 -52 49 -74 4 -8 9 -17 13 -20 3 -3 24 -32 45 -65
22 -33 43 -61 47 -63 5 -2 8 -8 8 -13 0 -11 102 -163 113 -167 4 -2 7 -9 7
-16 0 -7 8 -21 18 -32 9 -11 22 -29 29 -40 7 -10 27 -43 45 -71 l33 -53 1064
0 1063 0 -18 28 c-59 91 -790 1189 -797 1197 -5 5 -75 111 -157 235 -82 124
-154 232 -160 240 -6 8 -45 67 -86 130 -42 63 -80 117 -85 118 -5 2 -9 8 -9
14 0 13 -300 462 -311 466 -5 2 -9 8 -9 14 0 8 -116 190 -143 223 -4 6 -42 62
-84 125 -41 63 -79 117 -84 118 -5 2 -9 9 -9 15 0 9 -94 153 -109 167 -6 5
-18 25 -45 75 -6 11 -14 22 -17 25 -3 3 -34 48 -69 100 -34 52 -66 97 -71 98
-5 2 -9 8 -9 14 0 13 -300 462 -311 466 -5 2 -9 8 -9 14 0 15 -62 108 -72 108
-4 0 -8 5 -8 11 0 13 -219 343 -231 347 -5 2 -9 8 -9 14 0 6 -36 64 -80 129
-44 65 -80 122 -80 127 0 6 -4 12 -8 14 -5 2 -55 73 -112 158 -57 85 -108 158
-114 162 -6 4 -8 8 -4 8 8 0 -222 344 -233 348 -5 2 -9 8 -9 14 0 6 -36 64
-80 129 -44 65 -80 122 -80 127 0 6 -4 12 -8 14 -11 4 -292 425 -292 437 0 5
-4 11 -8 13 -11 4 -92 124 -92 137 0 5 -4 11 -8 13 -5 2 -91 127 -192 278
-100 151 -188 278 -194 282 -6 4 -7 8 -3 8 4 0 -12 29 -37 64 -26 35 -46 67
-46 70 0 4 -8 16 -18 27 -11 10 -25 32 -33 47 -8 15 -17 29 -20 32 -3 3 -110
163 -238 355 -129 193 -238 353 -243 356 -5 3 -8 8 -6 10 3 4 -410 628 -423
639 -3 3 -14 21 -25 40 -10 19 -25 41 -32 48 -6 8 -17 22 -22 33 -10 19 -35
19 -1070 19 -583 0 -1060 -4 -1060 -9z"/>
<path d="M9473 7790 l-2151 -5 133 -200 c73 -110 138 -205 144 -212 6 -7 11
-14 11 -17 0 -4 217 -334 237 -361 5 -5 22 -30 38 -55 17 -25 33 -46 38 -48 4
-2 7 -8 7 -12 0 -9 156 -246 184 -281 8 -9 15 -21 17 -26 2 -5 33 -52 68 -104
l63 -95 1889 0 1889 0 0 708 0 707 -207 3 c-115 2 -1176 1 -2360 -2z"/>
<path d="M8745 5660 c-3 -5 110 -179 134 -207 6 -7 11 -15 11 -18 0 -8 104
-160 113 -163 4 -2 7 -8 7 -13 0 -5 19 -37 43 -70 54 -78 74 -109 88 -136 7
-13 16 -23 21 -23 4 0 8 -7 8 -15 0 -8 5 -15 10 -15 6 0 10 -4 10 -9 0 -6 15
-31 33 -57 46 -66 65 -96 78 -121 7 -13 16 -23 21 -23 4 0 8 -4 8 -9 0 -12
142 -225 153 -229 4 -2 7 -10 7 -18 0 -8 5 -14 10 -14 6 0 10 -4 10 -10 0 -8
95 -155 110 -170 7 -7 28 -41 42 -67 11 -22 16 -23 155 -23 78 0 577 0 1108 0
531 0 999 0 1040 0 l75 0 0 708 0 707 -1646 0 c-905 1 -1647 -2 -1649 -5z"/>
</g>
</svg>
